# xmcd CD database file
#
# Track frame offsets:
#	150
#	13485
#	33517
#	55120
#
# Disc length: 898 seconds
#
# Revision: 0
# Processed by: cddbd v1.5.1PL2 Copyright (c) Steve Scherf et al.
# Submitted via: CDex 1.51
#
DISCID=2f038004
DTITLE=ORANGE RANGE - 上海ハニー
DYEAR=2004
DGENRE=JPop
TTITLE0=上海ハニー
TTITLE1=ニュー・トウキオマシン
TTITLE2=上海ハニー 〜ryukyudisco remix〜
TTITLE3=上海ハニー 〜上海style〜
EXTD=YEAR: 2004
EXTT0=
EXTT1=
EXTT2=
EXTT3=
PLAYORDER=
